<svg xmlns="http://www.w3.org/2000/svg" viewBox="0 0 512 511.97"><defs><style>.cls-1{fill:#f9d70d;}</style></defs><g id="Capa_2" data-name="Capa 2"><g id="Capa_1-2" data-name="Capa 1"><path class="cls-1" d="M447.1,112a64,64,0,0,0-31,119.4V344c0,57.3-50.2,104-112,104-60,0-109.2-44.1-111.9-99.2C265,333.77,320,269.17,320,192V36.57a24,24,0,0,0-19.3-23.5L237.8.47a23.94,23.94,0,0,0-28.2,18.8L206.4,35a23.94,23.94,0,0,0,18.8,28.2l30.7,6.1v121.4c0,52.9-42.2,96.7-95.1,97.2a96,96,0,0,1-96.9-96V69.37l30.7-6.1a23.94,23.94,0,0,0,18.8-28.2l-3.1-15.7A23.94,23.94,0,0,0,82.1.57L19.3,13A24.09,24.09,0,0,0,0,36.57V192c0,77.3,55.1,142,128.1,156.8C130.7,439.17,208.6,512,304,512c97,0,176-75.4,176-168V231.37A64,64,0,0,0,447.1,112Zm.9,80a16,16,0,1,1,16-16A16,16,0,0,1,448,192Z"/></g></g></svg>